<?xml version="1.0" encoding="utf-8"?>
<!-- Generator: Adobe Illustrator 18.1.1, SVG Export Plug-In . SVG Version: 6.00 Build 0)  -->
<svg version="1.1" id="Layer_1" xmlns="http://www.w3.org/2000/svg" xmlns:xlink="http://www.w3.org/1999/xlink" x="0px" y="0px"
	 viewBox="0 0 3000 3000" enable-background="new 0 0 3000 3000" xml:space="preserve">
<g>
	<g>
		<path d="M760.9,2736c-66.6,0-120.8-54.2-120.8-120.8V441.4c0-66.6,54.2-120.8,120.8-120.8h1478.2c66.6,0,120.8,54.2,120.8,120.8
			v2173.8c0,66.6-54.2,120.8-120.8,120.8H760.9z"/>
		<path fill="#6C6063" d="M2239.1,328.5c30.1,0,58.5,11.7,79.8,33.1c21.3,21.3,33.1,49.7,33.1,79.8v2173.8
			c0,30.1-11.7,58.5-33.1,79.8s-49.7,33.1-79.8,33.1H760.9c-30.1,0-58.5-11.7-79.8-33.1s-33.1-49.7-33.1-79.8V441.4
			c0-30.1,11.7-58.5,33.1-79.8c21.3-21.3,49.7-33.1,79.8-33.1H2239.1 M2239.1,312.5H760.9c-71.2,0-128.8,57.7-128.8,128.8v2173.8
			c0,71.2,57.7,128.8,128.8,128.8h1478.2c71.2,0,128.8-57.7,128.8-128.8V441.4C2367.9,370.2,2310.3,312.5,2239.1,312.5L2239.1,312.5
			z"/>
	</g>
	<rect x="747.8" y="625.7" fill="#1A4B80" width="1504.3" height="378.9"/>
	<rect x="2073.9" y="392.2" fill="#005A54" stroke="#E9F5EE" stroke-miterlimit="10" width="178.3" height="168.4"/>
	<rect x="1895.5" y="392.2" fill="#005A54" stroke="#E9F5EE" stroke-miterlimit="10" width="178.3" height="168.4"/>
	<rect x="1717.2" y="392.2" fill="#005A54" stroke="#E9F5EE" stroke-miterlimit="10" width="178.3" height="168.4"/>
	<rect x="1538.9" y="392.2" fill="#005A54" stroke="#E9F5EE" stroke-miterlimit="10" width="178.3" height="168.4"/>
	<path fill="#ED1C24" d="M973.5,1423.7H789.6c-23.1,0-41.8-18.7-41.8-41.8v-95.4c0-23.1,18.7-41.8,41.8-41.8h183.9
		c23.1,0,41.8,18.7,41.8,41.8v95.4C1015.3,1405,996.6,1423.7,973.5,1423.7z"/>
	<g>
		<path fill="#A0DDF9" d="M973.5,1717.6H789.6c-23.1,0-41.8-18.7-41.8-41.8v-95.4c0-23.1,18.7-41.8,41.8-41.8h183.9
			c23.1,0,41.8,18.7,41.8,41.8v95.4C1015.3,1698.9,996.6,1717.6,973.5,1717.6z"/>
		<path fill="#A0DDF9" d="M2210.4,1717.6h-183.9c-23.1,0-41.8-18.7-41.8-41.8v-95.4c0-23.1,18.7-41.8,41.8-41.8h183.9
			c23.1,0,41.8,18.7,41.8,41.8v95.4C2252.2,1698.9,2233.4,1717.6,2210.4,1717.6z"/>
		<path fill="#A0DDF9" d="M1798.1,1717.6h-183.9c-23.1,0-41.8-18.7-41.8-41.8v-95.4c0-23.1,18.7-41.8,41.8-41.8h183.9
			c23.1,0,41.8,18.7,41.8,41.8v95.4C1839.9,1698.9,1821.2,1717.6,1798.1,1717.6z"/>
		<path fill="#A0DDF9" d="M1385.8,1717.6h-183.9c-23.1,0-41.8-18.7-41.8-41.8v-95.4c0-23.1,18.7-41.8,41.8-41.8h183.9
			c23.1,0,41.8,18.7,41.8,41.8v95.4C1427.6,1698.9,1408.9,1717.6,1385.8,1717.6z"/>
		<path fill="#A0DDF9" d="M2210.4,1423.7h-183.9c-23.1,0-41.8-18.7-41.8-41.8v-95.4c0-23.1,18.7-41.8,41.8-41.8h183.9
			c23.1,0,41.8,18.7,41.8,41.8v95.4C2252.2,1405,2233.4,1423.7,2210.4,1423.7z"/>
		<path fill="#A0DDF9" d="M1798.1,1423.7h-183.9c-23.1,0-41.8-18.7-41.8-41.8v-95.4c0-23.1,18.7-41.8,41.8-41.8h183.9
			c23.1,0,41.8,18.7,41.8,41.8v95.4C1839.9,1405,1821.2,1423.7,1798.1,1423.7z"/>
		<path fill="#A0DDF9" d="M1385.8,1423.7h-183.9c-23.1,0-41.8-18.7-41.8-41.8v-95.4c0-23.1,18.7-41.8,41.8-41.8h183.9
			c23.1,0,41.8,18.7,41.8,41.8v95.4C1427.6,1405,1408.9,1423.7,1385.8,1423.7z"/>
		<path fill="#A0DDF9" d="M973.5,2013.7H789.6c-23.1,0-41.8-18.7-41.8-41.8v-95.4c0-23.1,18.7-41.8,41.8-41.8h183.9
			c23.1,0,41.8,18.7,41.8,41.8v95.4C1015.3,1995,996.6,2013.7,973.5,2013.7z"/>
		<path fill="#A0DDF9" d="M2210.4,2013.7h-183.9c-23.1,0-41.8-18.7-41.8-41.8v-95.4c0-23.1,18.7-41.8,41.8-41.8h183.9
			c23.1,0,41.8,18.7,41.8,41.8v95.4C2252.2,1995,2233.4,2013.7,2210.4,2013.7z"/>
		<path fill="#A0DDF9" d="M1798.1,2013.7h-183.9c-23.1,0-41.8-18.7-41.8-41.8v-95.4c0-23.1,18.7-41.8,41.8-41.8h183.9
			c23.1,0,41.8,18.7,41.8,41.8v95.4C1839.9,1995,1821.2,2013.7,1798.1,2013.7z"/>
		<path fill="#A0DDF9" d="M1385.8,2013.7h-183.9c-23.1,0-41.8-18.7-41.8-41.8v-95.4c0-23.1,18.7-41.8,41.8-41.8h183.9
			c23.1,0,41.8,18.7,41.8,41.8v95.4C1427.6,1995,1408.9,2013.7,1385.8,2013.7z"/>
		<path fill="#A0DDF9" d="M973.5,2305.7H789.6c-23.1,0-41.8-18.7-41.8-41.8v-95.4c0-23.1,18.7-41.8,41.8-41.8h183.9
			c23.1,0,41.8,18.7,41.8,41.8v95.4C1015.3,2287,996.6,2305.7,973.5,2305.7z"/>
		<path fill="#A0DDF9" d="M2252.2,2434.4c0,4.6-0.7,9-2.1,13.1c1.4,4.1,2.1,8.5,2.1,13.1v95.4c0,23.1-18.7,41.8-41.8,41.8h-183.9
			c-23.1,0-41.8-18.7-41.8-41.8v-95.4c0-4.6,0.7-8.9,2.1-13.1c-1.4-4.1-2.1-8.5-2.1-13.1v-265.9c0-23.1,18.7-41.8,41.8-41.8h183.9
			c23.1,0,41.8,18.7,41.8,41.8V2434.4z"/>
		<path fill="#A0DDF9" d="M1798.1,2305.7h-183.9c-23.1,0-41.8-18.7-41.8-41.8v-95.4c0-23.1,18.7-41.8,41.8-41.8h183.9
			c23.1,0,41.8,18.7,41.8,41.8v95.4C1839.9,2287,1821.2,2305.7,1798.1,2305.7z"/>
		<path fill="#A0DDF9" d="M1385.8,2305.7h-183.9c-23.1,0-41.8-18.7-41.8-41.8v-95.4c0-23.1,18.7-41.8,41.8-41.8h183.9
			c23.1,0,41.8,18.7,41.8,41.8v95.4C1427.6,2287,1408.9,2305.7,1385.8,2305.7z"/>
		<path fill="#A0DDF9" d="M973.5,2597.7H789.6c-23.1,0-41.8-18.7-41.8-41.8v-95.4c0-23.1,18.7-41.8,41.8-41.8h183.9
			c23.1,0,41.8,18.7,41.8,41.8v95.4C1015.3,2579,996.6,2597.7,973.5,2597.7z"/>
		<path fill="#A0DDF9" d="M1798.1,2597.7h-183.9c-23.1,0-41.8-18.7-41.8-41.8v-95.4c0-23.1,18.7-41.8,41.8-41.8h183.9
			c23.1,0,41.8,18.7,41.8,41.8v95.4C1839.9,2579,1821.2,2597.7,1798.1,2597.7z"/>
		<path fill="#A0DDF9" d="M1385.8,2597.7h-183.9c-23.1,0-41.8-18.7-41.8-41.8v-95.4c0-23.1,18.7-41.8,41.8-41.8h183.9
			c23.1,0,41.8,18.7,41.8,41.8v95.4C1427.6,2579,1408.9,2597.7,1385.8,2597.7z"/>
	</g>
	<g>
		<path d="M912.2,2509.7c0,41.3-13.1,62-39.2,62c-26,0-39-20.7-39-62c0-41.4,13-62.2,39-62.2
			C899.1,2447.5,912.2,2468.2,912.2,2509.7z M896.3,2509.7c0-9.3-0.5-17.1-1.5-23.5s-2.5-11.5-4.5-15.5c-2-4-4.4-6.8-7.3-8.5
			c-2.9-1.7-6.2-2.6-10-2.6c-3.7,0-7.1,0.8-9.9,2.5c-2.9,1.7-5.3,4.5-7.2,8.3c-2,3.9-3.4,9-4.4,15.4c-1,6.4-1.5,14.3-1.5,23.8
			c0,9.4,0.5,17.4,1.5,23.7c1,6.4,2.5,11.5,4.4,15.3c2,3.8,4.4,6.6,7.2,8.2c2.9,1.7,6.2,2.5,9.9,2.5c3.8,0,7.1-0.9,10-2.6
			c2.9-1.7,5.3-4.5,7.3-8.5c2-3.9,3.4-9.1,4.5-15.4S896.3,2518.9,896.3,2509.7z"/>
	</g>
	<g>
		<path d="M889.5,2275.6h-15.5v-94.5c-6.1,4.2-15.7,6.3-29,6.3v-12.1c18.9,0,29.7-7.3,32.5-21.8h11.9V2275.6z"/>
	</g>
	<g>
		<path d="M1333.2,2275.6h-79.6c0-7.4,2.3-14.4,6.8-21c2.2-3.4,5.4-7.1,9.5-11.1c4.1-4,9.2-8.5,15.3-13.5c6.2-5,11.4-9.4,15.5-13.2
			c4.1-3.8,7.3-7.2,9.5-10.2c4.4-5.7,6.6-12.4,6.6-19.9c0-6.6-1.9-11.8-5.6-15.5c-3.7-3.8-9.1-5.7-16.3-5.7
			c-6.3,0-11.5,1.9-15.6,5.7c-4.1,3.8-6.4,9.5-6.9,16.9h-16.1c0.4-5.4,1.6-10.2,3.7-14.5c2-4.3,4.7-7.9,8.1-10.9
			c3.4-3,7.4-5.3,11.9-6.9c4.6-1.6,9.6-2.4,15.1-2.4c6.1,0,11.5,0.9,16.2,2.6c4.7,1.7,8.6,4.1,11.7,7.2c3.1,3.1,5.5,6.6,7.1,10.7
			c1.6,4.1,2.5,8.5,2.5,13.3c0,4.5-0.6,8.7-1.8,12.5s-3,7.4-5.3,10.8c-2.6,3.4-6.2,7.4-11,12s-10.7,9.8-17.8,15.9
			c-14.4,12.1-21.7,19.8-21.8,22.9h58.1V2275.6z"/>
	</g>
	<g>
		<path d="M1747.9,2240.2c0,5.6-1,10.7-3,15.3c-2,4.6-4.8,8.6-8.4,11.8c-3.6,3.3-7.8,5.8-12.6,7.6c-4.8,1.8-10,2.7-15.5,2.7
			c-5.6,0-10.7-0.8-15.4-2.5s-8.7-3.9-12.2-6.8c-3.5-2.9-6.2-6.5-8.1-10.6c-2-4.2-3.1-8.8-3.4-13.9h15.9c0,3,0.5,5.8,1.5,8.4
			c1,2.6,2.5,4.9,4.5,6.8c2,2,4.4,3.5,7.2,4.6s6.2,1.7,10,1.7c3.5,0,6.7-0.6,9.7-1.8c2.9-1.2,5.4-2.9,7.5-5.1
			c2.1-2.2,3.7-4.8,4.8-7.8c1.1-3,1.7-6.4,1.7-10.1c0-7.8-2.2-13.6-6.6-17.6c-4.4-4-10.9-6-19.6-6h-5.9V2205h3.5
			c15,0,22.5-6.9,22.5-20.7c0-6.1-1.6-10.8-4.8-14c-3.2-3.2-7.9-4.8-14-4.8c-12.3,0-19.1,6.4-20.4,19.1h-16c0.6-5.2,1.9-9.7,4-13.6
			c2.1-3.9,4.7-7.1,7.9-9.7c3.2-2.6,6.8-4.5,10.9-5.9c4.1-1.3,8.5-2,13.3-2c5.3,0,10.1,0.8,14.4,2.3c4.3,1.5,8,3.7,11,6.4
			c3.1,2.8,5.4,6.1,7.1,9.8s2.5,8,2.5,12.6c0,5.3-1.4,10.1-4.1,14.6c-2.7,4.4-6.9,7.9-12.5,10.4c3.5,0.9,6.6,2.3,9.4,4.2
			s5.1,4.2,7.1,6.8c2,2.6,3.5,5.6,4.6,8.9C1747.3,2232.9,1747.9,2236.4,1747.9,2240.2z"/>
	</g>
	<g>
		<path d="M1302.2,2519.6h-16.8v-16.8h16.8V2519.6z"/>
	</g>
	<g>
		<path d="M1750.6,2499.1H1671v-13.8h79.6V2499.1z M1750.6,2535.6H1671v-13.8h79.6V2535.6z"/>
	</g>
	<g>
		<path d="M912.1,1954.9h-16.3v28.7h-15.5v-28.7H829v-13.6l54.7-79.3h12.1v79.3h16.3V1954.9z M880.3,1941.2v-55l-36.9,55H880.3z"/>
	</g>
	<g>
		<path d="M1335.1,1942.7c0,6.1-1,11.8-2.9,17c-2,5.2-4.7,9.7-8.3,13.6c-3.6,3.8-7.9,6.8-12.9,9c-5,2.2-10.6,3.3-16.7,3.3
			c-5.1,0-9.8-0.7-14.3-2.1c-4.5-1.4-8.4-3.5-11.8-6.3c-3.4-2.8-6.2-6.3-8.4-10.5c-2.2-4.2-3.6-9.1-4.2-14.7h16.1
			c0.9,7.3,3.4,12.7,7.4,16.1c4,3.4,9.1,5.1,15.2,5.1c3.7,0,7.1-0.8,10.1-2.3c3.1-1.5,5.7-3.6,7.9-6.2c2.2-2.6,3.9-5.7,5.1-9.3
			c1.2-3.5,1.8-7.4,1.8-11.5s-0.6-7.9-1.8-11.3c-1.2-3.4-2.9-6.3-5.1-8.6c-2.2-2.3-4.9-4.2-8-5.4s-6.5-1.9-10.3-1.9
			c-8.6,0-15.9,3.3-21.8,10h-12.1l5.1-63.4h64.3v14.2h-51.2l-2.6,33.3c6-4.8,13.4-7.2,22.2-7.2c4.9,0,9.5,0.9,14,2.7
			c4.5,1.8,8.5,4.4,11.9,7.8c3.5,3.4,6.2,7.5,8.3,12.3C1334,1931.4,1335.1,1936.8,1335.1,1942.7z"/>
	</g>
	<g>
		<path d="M1748.2,1944.6c0,5.5-0.9,10.7-2.7,15.6c-1.8,4.9-4.3,9.3-7.6,13.1c-3.3,3.8-7.2,6.8-11.9,9c-4.6,2.2-9.8,3.4-15.6,3.4
			c-6.5,0-12.3-1.3-17.4-3.8c-5.1-2.5-9.4-6.2-12.9-11.2c-3.5-4.9-6.2-11-8-18.2c-1.8-7.3-2.8-15.6-2.8-25.1
			c0-43.9,14.1-65.9,42.4-65.9c4.4,0,8.6,0.6,12.5,1.8c3.9,1.2,7.3,3,10.3,5.5c3,2.5,5.5,5.6,7.4,9.4s3.3,8.2,4,13.2h-15.8
			c-1.6-11.9-8-17.9-19.2-17.9c-7.5,0-13.5,3.8-18,11.4c-4.5,7.6-7.1,18.9-7.9,33.9c7.8-8.8,16.8-13.1,27.1-13.1
			c4.9,0,9.5,1,13.9,2.9c4.4,2,8.2,4.7,11.5,8.1c3.3,3.5,5.9,7.6,7.8,12.3S1748.2,1939,1748.2,1944.6z M1732,1945.4
			c0-4.1-0.5-7.8-1.6-11.2c-1.1-3.4-2.5-6.3-4.5-8.8c-1.9-2.5-4.3-4.4-7.1-5.7c-2.8-1.3-5.9-2-9.3-2c-8.5,0-16.8,4.3-24.8,13
			c0.2,13.9,2.5,24.4,6.9,31.7c4.4,7.3,10.5,10.9,18.4,10.9c3.3,0,6.3-0.7,9.1-2.1c2.7-1.4,5-3.4,6.9-5.9c1.9-2.5,3.3-5.5,4.4-8.9
			C1731.5,1953,1732,1949.3,1732,1945.4z"/>
	</g>
	<g>
		<path d="M912.2,1581.3l-43.6,109.2h-17.2l44.6-105.8h-61.5v-14.2h77.7V1581.3z"/>
	</g>
	<g>
		<path d="M1334.9,1658.7c0,5-1,9.5-2.9,13.6c-1.9,4.1-4.6,7.7-8.1,10.7c-3.5,3-7.7,5.3-12.6,7c-4.9,1.7-10.3,2.6-16.3,2.6
			c-5.9,0-11.2-0.8-16-2.5s-9-3.9-12.5-6.9c-3.5-3-6.2-6.5-8.1-10.7c-1.9-4.1-2.9-8.8-2.9-13.9c0-13.1,8.3-23.5,25-31.2
			c-13.5-7.9-20.3-17.7-20.3-29.4c0-4.3,0.8-8.2,2.5-11.9s4-6.8,7-9.4c3-2.6,6.7-4.7,11-6.1c4.3-1.5,9.1-2.2,14.3-2.2
			s10,0.7,14.3,2.2c4.3,1.5,8,3.5,11,6.1c3.1,2.6,5.4,5.8,7.1,9.4c1.7,3.6,2.5,7.6,2.5,11.9c0,11.8-6.8,21.6-20.3,29.4
			C1326.5,1635.1,1334.9,1645.5,1334.9,1658.7z M1318.7,1658.7c0-5.2-1.9-9.7-5.6-13.4c-3.7-3.7-9.8-7.4-18-11
			c-4.3,2-7.9,3.8-10.9,5.7c-3,1.8-5.4,3.7-7.3,5.7s-3.3,4-4.1,6.1c-0.8,2.2-1.2,4.5-1.2,7c0,3.4,0.6,6.4,1.7,9.1
			c1.1,2.7,2.7,5,4.8,6.8c2.1,1.9,4.5,3.3,7.4,4.3c2.9,1,6.1,1.5,9.6,1.5c3.5,0,6.7-0.5,9.6-1.4c2.9-0.9,5.4-2.3,7.5-4.2
			c2.1-1.9,3.7-4.1,4.9-6.8C1318.1,1665.3,1318.7,1662.2,1318.7,1658.7z M1295,1621.1c12.8-5.6,19.1-13.3,19.1-23.1
			c0-5.5-1.7-9.8-5-12.9c-3.3-3.1-8-4.6-14.2-4.6c-6.1,0-10.8,1.5-14,4.6c-3.2,3.1-4.9,7.4-4.9,12.9
			C1276.1,1607.7,1282.4,1615.4,1295,1621.1z"/>
	</g>
	<g>
		<path d="M1747.5,1626.6c0,44-14.1,66-42.4,66c-4.5,0-8.7-0.6-12.5-1.9c-3.9-1.2-7.3-3.1-10.3-5.6s-5.5-5.6-7.5-9.3
			c-2-3.7-3.3-8.1-3.8-13.1h15.8c1.2,11.8,7.6,17.6,19.2,17.6c7.5,0,13.5-3.8,18-11.4c4.5-7.6,7.1-18.9,8-33.9
			c-8,8.8-17.1,13.1-27.4,13.1c-5.2,0-9.9-1-14.2-2.9c-4.3-2-8.1-4.6-11.3-8.1c-3.2-3.4-5.7-7.5-7.5-12.2c-1.8-4.7-2.7-9.9-2.7-15.5
			c0-5.5,0.9-10.7,2.6-15.7c1.7-5,4.2-9.4,7.4-13.1s7.2-6.8,11.8-9c4.6-2.2,9.9-3.3,15.7-3.3c13.2,0,23.4,4.9,30.5,14.8
			C1744,1593,1747.5,1607.5,1747.5,1626.6z M1732,1623.2c-0.3-14.2-2.7-24.9-7.1-32c-4.4-7.1-10.5-10.7-18.2-10.7
			c-3.4,0-6.4,0.7-9.1,2.1s-5,3.4-6.9,5.9c-1.9,2.5-3.4,5.5-4.4,8.9c-1,3.4-1.5,7-1.5,11c0,4,0.5,7.7,1.5,11c1,3.3,2.5,6.2,4.4,8.7
			c1.9,2.5,4.2,4.4,7,5.8c2.7,1.4,5.9,2.1,9.4,2.1C1715.8,1636,1724.1,1631.8,1732,1623.2z"/>
	</g>
	<g>
		<path fill="#FFFFFF" d="M884.2,1384.3h-15.1l-11.8-30.9h-42.5l-11.3,30.9h-14.1l39-101.5h14.4L884.2,1384.3z M853.3,1342.7
			l-17.8-47.1l-17.2,47.1H853.3z"/>
		<path fill="#FFFFFF" d="M979.2,1313.4h-13.8c-0.4-3.1-1.3-6-2.7-8.6c-1.4-2.6-3.3-4.8-5.6-6.6c-2.3-1.8-5.1-3.2-8.3-4.2
			c-3.2-1-6.8-1.5-10.7-1.5c-5.2,0-9.9,0.9-14,2.8c-4.1,1.9-7.7,4.5-10.5,8c-2.9,3.5-5.1,7.7-6.6,12.8c-1.5,5.1-2.3,10.9-2.3,17.4
			c0,6.6,0.8,12.4,2.4,17.5c1.6,5.1,3.8,9.4,6.7,12.9c2.9,3.5,6.3,6.1,10.4,7.9c4.1,1.8,8.7,2.7,13.8,2.7c8.4,0,14.9-2,19.6-5.9
			c4.7-3.9,7.3-9.5,8.1-16.6h13.8c-0.5,5.5-1.9,10.3-4.1,14.6c-2.3,4.2-5.2,7.8-8.9,10.7c-3.7,2.9-7.9,5-12.7,6.5
			c-4.8,1.5-10,2.2-15.5,2.2c-7.2,0-13.8-1.2-19.6-3.7c-5.8-2.5-10.8-6-14.9-10.5c-4.1-4.6-7.3-10.1-9.5-16.6
			c-2.2-6.5-3.3-13.7-3.3-21.7c0-8.1,1.1-15.3,3.3-21.8c2.2-6.5,5.4-12,9.5-16.5c4.1-4.5,9.1-8,14.9-10.5c5.8-2.5,12.4-3.7,19.6-3.7
			c5.4,0,10.6,0.8,15.4,2.3c4.8,1.6,9.1,3.8,12.7,6.6c3.7,2.8,6.7,6.2,9,10.2C977.3,1304.2,978.7,1308.6,979.2,1313.4z"/>
	</g>
	<g>
		<path d="M1289.7,1313.4h-13.8c-0.4-3.1-1.3-6-2.7-8.6c-1.4-2.6-3.3-4.8-5.6-6.6c-2.3-1.8-5.1-3.2-8.3-4.2c-3.2-1-6.8-1.5-10.7-1.5
			c-5.2,0-9.9,0.9-14,2.8c-4.1,1.9-7.7,4.5-10.5,8c-2.9,3.5-5.1,7.7-6.6,12.8c-1.5,5.1-2.3,10.9-2.3,17.4c0,6.6,0.8,12.4,2.4,17.5
			c1.6,5.1,3.8,9.4,6.7,12.9c2.9,3.5,6.3,6.1,10.4,7.9c4.1,1.8,8.7,2.7,13.8,2.7c8.4,0,14.9-2,19.6-5.9c4.7-3.9,7.3-9.5,8.1-16.6
			h13.8c-0.5,5.5-1.9,10.3-4.1,14.6c-2.3,4.2-5.2,7.8-8.9,10.7c-3.7,2.9-7.9,5-12.7,6.5c-4.8,1.5-10,2.2-15.5,2.2
			c-7.2,0-13.8-1.2-19.6-3.7c-5.8-2.5-10.8-6-14.9-10.5c-4.1-4.6-7.3-10.1-9.5-16.6c-2.2-6.5-3.3-13.7-3.3-21.7
			c0-8.1,1.1-15.3,3.3-21.8c2.2-6.5,5.4-12,9.5-16.5c4.1-4.5,9.1-8,14.9-10.5c5.8-2.5,12.4-3.7,19.6-3.7c5.4,0,10.6,0.8,15.4,2.3
			c4.8,1.6,9.1,3.8,12.7,6.6c3.7,2.8,6.7,6.2,9,10.2C1287.8,1304.2,1289.2,1308.6,1289.7,1313.4z"/>
		<path d="M1384.1,1384.3h-75.6v-101.5h73.3v12h-60.1v31h56v12.1h-56v34.2h62.4V1384.3z"/>
	</g>
	<g>
		<path d="M1697.6,1308c0,4.3-0.6,8.1-1.7,11.4c-1.2,3.3-2.8,6.2-4.8,8.5c-2,2.3-4.5,4-7.3,5.3c-2.9,1.2-6,1.8-9.3,1.8
			c-3.5,0-6.6-0.6-9.4-1.9c-2.8-1.3-5.2-3.1-7.3-5.4c-2.1-2.3-3.6-5.1-4.7-8.5c-1.1-3.3-1.7-7.1-1.7-11.2c0-4.1,0.6-7.8,1.7-11.1
			c1.1-3.3,2.7-6.1,4.7-8.5c2.1-2.4,4.5-4.2,7.3-5.5c2.8-1.3,5.9-1.9,9.4-1.9c3.3,0,6.4,0.6,9.3,1.8c2.9,1.2,5.3,3,7.3,5.4
			c2,2.3,3.6,5.2,4.8,8.5C1697,1300,1697.6,1303.8,1697.6,1308z M1686.5,1308c0-12.3-4-18.5-12-18.5c-8,0-12,6.2-12,18.5
			c0,12.3,4,18.5,12,18.5C1682.5,1326.5,1686.5,1320.3,1686.5,1308z M1738.3,1282.9l-55.5,101.5h-10.2l55.6-101.5H1738.3z
			 M1759.7,1359c0,4.1-0.6,7.9-1.7,11.2c-1.1,3.3-2.7,6.2-4.8,8.5c-2.1,2.4-4.5,4.2-7.3,5.5c-2.8,1.3-6,1.9-9.4,1.9
			c-3.4,0-6.5-0.6-9.3-1.9c-2.8-1.2-5.3-3.1-7.3-5.4c-2-2.4-3.6-5.2-4.7-8.5c-1.1-3.3-1.7-7.1-1.7-11.3c0-4.1,0.6-7.7,1.7-11
			c1.1-3.3,2.7-6.1,4.7-8.5c2-2.4,4.4-4.2,7.2-5.5c2.8-1.3,5.9-1.9,9.4-1.9c3.4,0,6.6,0.6,9.4,1.9c2.8,1.3,5.3,3.1,7.3,5.5
			c2.1,2.4,3.6,5.2,4.8,8.5C1759.2,1351.2,1759.7,1354.9,1759.7,1359z M1748.6,1359c0-12.3-4-18.5-12.1-18.5
			c-7.9,0-11.9,6.2-11.9,18.5c0,12.4,4,18.5,11.9,18.5C1744.6,1377.5,1748.6,1371.3,1748.6,1359z"/>
	</g>
	<g>
		<path d="M2162.7,2372.5h-32.8v32.8H2116v-32.8h-32.9v-13.7h32.9V2326h13.8v32.9h32.8V2372.5z"/>
	</g>
	<g>
		<path d="M2139.3,1932.5h-45.2v-14.8h45.2V1932.5z"/>
	</g>
	<g>
		<path d="M2161.5,1675.5h-19.1l-21.6-33.9l-21.8,33.9H2080l32.1-45.2l-29.6-41.8h19.2l19.1,30.5l19-30.5h19.3l-29.7,41.7
			L2161.5,1675.5z"/>
	</g>
	<g>
		
			<line fill="none" stroke="#000000" stroke-width="10" stroke-linecap="round" stroke-linejoin="round" stroke-miterlimit="10" x1="2080.9" y1="1333.5" x2="2155.9" y2="1333.5"/>
		<circle cx="2118.4" cy="1308.3" r="11"/>
		<circle cx="2118.4" cy="1360.2" r="11"/>
	</g>
	<g>
		<path fill="#FFFFFF" d="M1268.3,787.2l-6.1-18.4c6.9-2.6,12.7-6.2,17.6-10.9c4.8-4.6,8.6-9.7,11.4-15.1h2.8l17.6,9.5v190.9H1285
			v-161L1268.3,787.2z"/>
		<path fill="#FFFFFF" d="M1412.5,919.2v24h-72v-61.7c0-3.3,0.3-6.1,0.8-8.4c0.6-2.2,1.5-4.3,2.9-6.3s3.9-4.7,7.4-8.2l27.1-25.9
			c2-2,3.7-3.8,4.9-5.3c1.2-1.5,2-2.7,2.5-3.8c0.5-1,0.7-2.1,0.8-3.2c0.1-1.1,0.1-2.6,0.1-4.5v-37.1c0-7.8-3.8-11.7-11.4-11.7h-1.7
			c-7.6,0-11.4,3.9-11.4,11.7v20.6h-26.8v-22.3c0-22.9,10.7-34.3,32.1-34.3h14c21.4,0,32.1,11.4,32.1,34.3v48c0,3.7-0.5,7-1.5,9.8
			c-1,2.8-3.7,6.2-8,10.3l-29.6,28.5c-3.7,3.5-5.9,6-6.4,7.3c-0.6,1.3-0.9,2.6-1,3.9c-0.1,1.3-0.1,3.1-0.1,5.3v29H1412.5z"/>
		<path fill="#FFFFFF" d="M1500.4,840.2c14,3.7,20.9,12.2,20.9,25.4v43.5c0,22.7-10.7,34-32.1,34h-18.1c-21.4,0-32.1-11.3-32.1-34
			v-12.8h26.8v10.9c0,7.8,3.5,11.7,10.6,11.7h6.1c8,0,12-3.9,12-11.7v-41.3c0-8.7-5.2-13.1-15.6-13.1h-7.3v-22.6h3.9
			c10.4,0,15.6-4.4,15.6-13.1v-37.9c0-7.8-4-11.7-12-11.7h-3.6c-7.1,0-10.6,3.9-10.6,11.7v20.4h-26.8v-22.3
			c0-22.9,10.7-34.3,32.1-34.3h15.6c21.4,0,32.1,11.4,32.1,34.3v39.9C1518,829.7,1512.1,837.5,1500.4,840.2z"/>
		<path fill="#FFFFFF" d="M1630.7,896.3h-15.3v46.9h-26.2v-46.9h-46.9l-5.6-22.6l51.9-130.9h26.8v130.9h15.3V896.3z M1591.9,796.2
			h-1.4l-25.4,77.6h24.8L1591.9,796.2z"/>
		<path fill="#FFFFFF" d="M1646.1,896.3h26.8v10.9c0,7.8,3.5,11.7,10.6,11.7h3.1c8,0,12-3.9,12-11.7v-45.8c0-8.7-3.7-13.1-11.2-13.1
			h-40.5V742.9h75.6v24.8H1672v56.4h21.2c21.4,0,32.1,11.8,32.1,35.4v48.3c0,23.6-10.7,35.4-32.1,35.4h-15.1
			c-21.4,0-32.1-11.3-32.1-34V896.3z"/>
		<path fill="#FFFFFF" d="M1802.9,799.5v-17.9c0-9.7-4-14.5-12-14.5h-4.5c-7.1,0-10.6,3.9-10.6,11.7v60.8l16.7-11.2h8.1
			c20.5,0,30.7,11.4,30.7,34.3v46.6c0,22.5-10.2,33.8-30.7,33.8h-20.9c-20.5,0-30.7-11.3-30.7-33.8V777.2
			c0-22.9,10.2-34.3,30.7-34.3h19.3c20.5,0,30.7,11.4,30.7,34.3v22.3H1802.9z M1775.8,852.8v54.1c0,8,3.9,12,11.7,12h5
			c8,0,12-4,12-12v-39.6c0-9.7-4-14.5-12-14.5H1775.8z"/>
		<path fill="#FFFFFF" d="M1862,943.2l34.6-175.5h-49.9v-24.8h70l7.5,14.5l-35.7,185.8H1862z"/>
		<path fill="#FFFFFF" d="M1960.8,841.1c-12.8-2.8-19.3-10.9-19.3-24.3v-39.6c0-22.9,10.7-34.3,32.1-34.3h16.5
			c21.4,0,32.1,11.4,32.1,34.3v39.9c0,13.4-5.9,21.5-17.6,24.3c13,3.7,19.5,11.7,19.5,24v43.8c0,22.7-10.7,34-32.1,34h-20.4
			c-21.4,0-32.1-11.3-32.1-34v-44.1C1939.6,852.8,1946.7,844.8,1960.8,841.1z M1978.4,918.9h7c8,0,12-4.8,12-14.5V867
			c0-9.5-5.1-14.2-15.3-14.2c-10.4,0.2-15.6,4.8-15.6,14v37.7C1966.4,914.1,1970.4,918.9,1978.4,918.9z M1968.3,781.9v33.2
			c0,9.7,4,14.5,12,14.5h3.1c8-1.3,12-6,12-14.2v-33.5c0-9.7-4-14.5-12-14.5h-3.1C1972.3,767.4,1968.3,772.3,1968.3,781.9z"/>
		<path fill="#FFFFFF" d="M2076.3,896.3v8.1c0,9.7,4,14.5,12,14.5h3.9c7.1,0,10.6-3.9,10.6-11.7v-48.5l-16.7,11.2h-6.1
			c-21.4,0-32.1-11.9-32.1-35.7V778c0-23.4,10.7-35.2,32.1-35.2h17.6c21.4,0,32.1,11.7,32.1,35.2v129.5c0,23.8-10.7,35.7-32.1,35.7
			h-15.9c-21.4,0-32.1-11.9-32.1-35.7v-11.2H2076.3z M2102.8,845.5v-66.4c0-8-4.4-12-13.1-12h-3.1c-8,0-12,4-12,12V831
			c0,9.7,4,14.5,12,14.5H2102.8z"/>
		<path fill="#FFFFFF" d="M2179,909.2v34h-28.5v-34H2179z"/>
	</g>
	<g>
		<path fill="#FFFFFF" d="M1926.6,687.7v-11.9h-11.8v-5h11.8V659h5v11.8h11.8v5h-11.8v11.9H1926.6z"/>
		<path fill="#AAABAC" d="M1965.6,681.7v-5.4h16.3v5.4H1965.6z"/>
		<path fill="#AAABAC" d="M2000.6,695.4l12.6-44.8h4.3l-12.5,44.8H2000.6z"/>
		<path fill="#AAABAC" d="M2034.7,694.7l11.5-16.3l-10.6-15.1h6.7l4.8,7.4c0.9,1.4,1.6,2.6,2.2,3.5c0.9-1.3,1.7-2.5,2.4-3.5l5.3-7.4
			h6.4l-10.8,14.8l11.7,16.6h-6.5l-6.4-9.8l-1.7-2.6l-8.2,12.4H2034.7z"/>
		<path fill="#AAABAC" d="M2084.9,661.7c0-3.1,0.8-5.7,2.3-7.9c1.6-2.2,3.8-3.3,6.8-3.3c2.7,0,5,1,6.8,2.9c1.8,1.9,2.7,4.8,2.7,8.6
			c0,3.7-0.9,6.5-2.7,8.5c-1.8,2-4,3-6.7,3c-2.6,0-4.8-1-6.5-2.9C2085.7,668.6,2084.9,665.7,2084.9,661.7z M2094.1,654.3
			c-1.3,0-2.4,0.6-3.3,1.7c-0.9,1.1-1.3,3.2-1.3,6.3c0,2.8,0.4,4.7,1.3,5.9s2,1.7,3.3,1.7c1.3,0,2.4-0.6,3.3-1.7
			c0.9-1.1,1.3-3.2,1.3-6.3c0-2.8-0.4-4.8-1.3-5.9C2096.6,654.8,2095.5,654.3,2094.1,654.3z M2094.2,696.3l23.7-45.7h4.3l-23.6,45.7
			H2094.2z M2112.9,684.5c0-3.1,0.8-5.7,2.3-7.9c1.6-2.2,3.8-3.2,6.8-3.2c2.7,0,5,1,6.8,2.9c1.8,1.9,2.7,4.8,2.7,8.6
			c0,3.7-0.9,6.5-2.7,8.5c-1.8,2-4,3-6.7,3c-2.6,0-4.8-1-6.5-2.9C2113.8,691.4,2112.9,688.4,2112.9,684.5z M2122.2,677
			c-1.3,0-2.4,0.6-3.3,1.7s-1.3,3.2-1.3,6.3c0,2.8,0.4,4.7,1.3,5.9c0.9,1.1,2,1.7,3.3,1.7c1.4,0,2.5-0.6,3.4-1.7
			c0.9-1.1,1.3-3.2,1.3-6.3c0-2.8-0.4-4.8-1.3-5.9C2124.6,677.6,2123.5,677,2122.2,677z"/>
		<path fill="#AAABAC" d="M2184,669.2h-28.6v-5h28.6V669.2z M2184,682.3h-28.6v-5h28.6V682.3z"/>
	</g>
	<polygon opacity="0.38" fill="#94D9F8" points="1783.6,560.6 1932.1,392.2 1969.6,392.2 1821.1,560.6 	"/>
	<polygon opacity="0.38" fill="#94D9F8" points="1858.6,560.6 2007.1,392.2 2044.6,392.2 1896.1,560.6 	"/>
	<polygon opacity="0.18" fill="#94D9F8" points="1107.2,1004.7 1505.2,625.7 1579.2,625.7 1193.2,1004.7 	"/>
	<polygon opacity="9.000000e-002" fill="#94D9F8" points="826.4,1004.7 1224.4,625.7 1298.4,625.7 912.4,1004.7 	"/>
	<polygon opacity="0.26" fill="#94D9F8" points="1254.7,1004.7 1652.7,625.7 1726.7,625.7 1340.7,1004.7 	"/>
	
		<line fill="none" stroke="#262262" stroke-width="14" stroke-linecap="round" stroke-linejoin="round" stroke-miterlimit="10" x1="747.8" y1="1085.8" x2="2252.2" y2="1085.8"/>
</g>
</svg>
